<?xml version="1.0" encoding="iso-8859-1"?>
<!-- Uploaded to: SVG Repo, www.svgrepo.com, Generator: SVG Repo Mixer Tools -->
<svg fill="#000000" height="800px" width="800px" version="1.1" id="Layer_1" xmlns="http://www.w3.org/2000/svg" xmlns:xlink="http://www.w3.org/1999/xlink" 
	 viewBox="0 0 512 512" xml:space="preserve">
<g>
	<g>
		<path d="M374.44,205.883c-18.736,0-35.307,10.83-45.2,27.312c-9.893-16.482-26.464-27.312-45.2-27.312
			c-29.347,0-54.778,21.687-63.28,53.966c-1.354,5.14,1.714,10.405,6.855,11.759c5.14,1.354,10.405-1.716,11.759-6.857
			c6.242-23.697,24.192-39.62,44.666-39.62c19.616,0,35.575,19.556,35.575,43.592c0,5.315,4.308,9.625,9.625,9.625
			s9.625-4.309,9.625-9.625c0-24.036,15.959-43.592,35.575-43.592c25.846,0,46.873,25.523,46.873,56.895
			c0,39.451-48.444,81.875-96.454,106.42c-4.733,2.419-6.608,8.218-4.189,12.951c1.702,3.33,5.077,5.246,8.577,5.245
			c1.473,0,2.971-0.34,4.373-1.056c49.332-25.22,106.941-72.713,106.941-123.558C440.562,240.041,410.9,205.883,374.44,205.883z"/>
	</g>
</g>
<g>
	<g>
		<path d="M288.706,282.369c-11.707,0-22.225,5.876-29.382,15.164c-7.156-9.288-17.675-15.164-29.382-15.164
			c-25.558,0-46.351,23.716-46.351,52.866c0,34.573,38.437,66.49,71.352,83.318c1.376,0.703,2.878,1.055,4.381,1.055
			c1.503,0,3.005-0.352,4.381-1.055c32.915-16.828,71.353-48.745,71.353-83.318C335.058,306.084,314.265,282.369,288.706,282.369z
			 M259.326,399.092c-27.99-15.351-56.484-40.964-56.484-63.857c-0.001-18.536,12.157-33.617,27.102-33.617
			c10.894,0,19.757,11.201,19.757,24.969c0,5.315,4.309,9.625,9.625,9.625c5.317,0,9.625-4.309,9.625-9.625
			c0-13.768,8.862-24.969,19.757-24.969c14.945,0,27.103,15.08,27.103,33.617C315.81,358.128,287.317,383.742,259.326,399.092z"/>
	</g>
</g>
<g>
	<g>
		<path d="M462.714,445.629c-5.317,0-9.625,4.309-9.625,9.625v37.497h-222.75c-5.315,0-9.625,4.309-9.625,9.625
			c0,5.315,4.309,9.625,9.625,9.625h232.375c5.317,0,9.625-4.309,9.625-9.625v-47.122
			C472.338,449.938,468.03,445.629,462.714,445.629z"/>
	</g>
</g>
<g>
	<g>
		<path d="M462.714,84.689h-80.838v-8.667C381.876,34.103,347.768,0,305.842,0c-18.074,0-35.146,6.327-48.603,17.533
			C243.783,6.325,226.71,0,208.639,0c-41.918,0-76.021,34.103-76.021,76.021v8.667H49.286c-5.315,0-9.625,4.309-9.625,9.625v77.978
			c0,5.315,4.309,9.625,9.625,9.625c5.315,0,9.625-4.309,9.625-9.625v-68.354h78.508v388.813H58.911v-289.02
			c0-5.315-4.309-9.625-9.625-9.625c-5.315,0-9.625,4.309-9.625,9.625v298.645c0,5.315,4.309,9.625,9.625,9.625h148.971
			c5.315,0,9.625-4.309,9.625-9.625c0-5.315-4.309-9.625-9.625-9.625h-41.59V103.938h73.139v57.744c0,5.315,4.309,9.625,9.625,9.625
			c5.315,0,9.625-4.309,9.625-9.625v-57.744h113.57v57.744c0,5.315,4.308,9.625,9.625,9.625s9.625-4.309,9.625-9.625v-57.744h71.213
			V422.53c0,5.315,4.308,9.625,9.625,9.625c5.317,0,9.625-4.309,9.625-9.625V94.313C472.338,88.998,468.03,84.689,462.714,84.689z
			 M241.937,34.823c-7.936,12.268-12.131,26.514-12.131,41.198v8.667h-77.941v-8.667c0-31.304,25.468-56.772,56.772-56.772
			c13.124,0,25.539,4.476,35.457,12.422C243.354,32.703,242.63,33.749,241.937,34.823z M265.423,84.689h-16.366v-8.667
			c0-10.415,2.826-20.525,8.183-29.358c5.355,8.826,8.182,18.939,8.182,29.358V84.689z M362.627,84.689h-77.955v-8.667
			c0-14.685-4.195-28.93-12.124-41.189c-0.696-1.078-1.421-2.126-2.164-3.161c9.918-7.946,22.333-12.422,35.458-12.422
			c31.311,0,56.785,25.468,56.785,56.772V84.689z"/>
	</g>
</g>
</svg>